<svg xmlns="http://www.w3.org/2000/svg" viewBox="0 0 350.14 85.16"><defs><style>.cls-1{fill:#007dc3;}.cls-2{fill:#002d56;}</style></defs><title>Asset 1</title><g id="Layer_2" data-name="Layer 2"><g id="Layer_1-2" data-name="Layer 1"><path class="cls-1" d="M151.89,41.78h-8V3a75.06,75.06,0,0,1,12.83-1.08c8.71,0,15.84,1.73,15.84,12.39,0,7-2.93,10.25-7.56,11.66l9,15.79h-9.21l-8.09-14.87c-1.61,0-3.44-.09-4.82-.17Zm0-21.41a42.52,42.52,0,0,0,4.87.2c5,0,7.89-1.27,7.89-6.28,0-4.37-2-6.11-7.72-6.11a39.48,39.48,0,0,0-5,.34Z"/><path class="cls-1" d="M198.66,41.78V23.44c0-4.28-.78-6.09-6.26-6.09a12.81,12.81,0,0,0-4.86.95V41.78H180V0h7.51V12.2a23.27,23.27,0,0,1,6.7-1c10.85,0,11.95,5.14,11.95,11.47V41.78Z"/><path class="cls-1" d="M230.45,11.64h7.65l-14,41.24h-7.65l4.74-13.22L209,11.64h8l7.55,18.6Z"/><path class="cls-1" d="M253.66,3.13v8.51h6.06v5.7h-6.06V32.93c0,2.5,1,3.49,3.57,3.49.85,0,1.68,0,2.54-.1l.58,5.35a31.34,31.34,0,0,1-5.16.52c-6.35,0-9-2.78-9-8.49V17.34h-4.92v-5.7h4.92V4.35Z"/><path class="cls-1" d="M285.15,41.78V23.44c0-4.28-.78-6.09-6.26-6.09a12.81,12.81,0,0,0-4.86.95V41.78h-7.51V0H274V12.2a23.27,23.27,0,0,1,6.7-1c10.85,0,11.95,5.14,11.95,11.47V41.78Z"/><path class="cls-1" d="M14.81,36.7a5.07,5.07,0,1,1,5.07,5.07A5.07,5.07,0,0,1,14.81,36.7Z"/><path class="cls-1" d="M29.63,21.89A5.07,5.07,0,1,1,34.7,27,5.07,5.07,0,0,1,29.63,21.89Z"/><path class="cls-1" d="M0,36.7a5.07,5.07,0,1,1,5.07,5.08A5.07,5.07,0,0,1,0,36.7Z"/><circle class="cls-1" cx="34.7" cy="7.08" r="5.07"/><path class="cls-1" d="M0,21.89A5.07,5.07,0,1,1,5.07,27,5.07,5.07,0,0,1,0,21.89Z"/><circle class="cls-1" cx="19.88" cy="7.08" r="5.07"/><path class="cls-2" d="M73.48,41.61c-2.79.12-7.62.27-10.08.27-7.12,0-13.69-.39-13.69-9.63V2.35h8V30c0,4.38.79,5.36,5.52,5.36H73.48Z"/><path class="cls-2" d="M75.74,26.7c0-11.24,3.59-15.47,13.5-15.47s13.52,4.37,13.52,15.47S99.18,42.19,89.25,42.19,75.74,38,75.74,26.7Zm19.51,0c0-7.29-1.25-9.43-6-9.43s-6,1.89-6,9.43,1.22,9.43,6,9.43S95.25,34,95.25,26.7Z"/><path class="cls-2" d="M110.21,46.45a87.24,87.24,0,0,0,10.93.88c4,0,5.8-1.86,5.8-5.57v-.9a28.78,28.78,0,0,1-5.75.64c-9.15,0-13.4-3.67-13.4-15.13s4.45-15.15,14.28-15.15c4.08,0,8.73.81,12.12,2.79.19,1.93.25,3.67.25,5.72V43.52c0,7.87-5.62,9.76-12.37,9.76A75.68,75.68,0,0,1,109.6,52Zm5.13-20.07c0,5.26.3,9.21,7.38,9.21a15.44,15.44,0,0,0,4.23-.66V22a38.54,38.54,0,0,0-.19-4,12.57,12.57,0,0,0-4.69-.8C115.86,17.13,115.34,21.68,115.34,26.38Z"/><path class="cls-2" d="M14.81,21.89A5.07,5.07,0,1,1,19.88,27,5.07,5.07,0,0,1,14.81,21.89Z"/><path class="cls-2" d="M10.37,68.32H6.7V80.8h-3V68.32H0V65.87H10.37Z"/><path class="cls-2" d="M19.46,80.8V73.86c0-1.62-.3-2.31-2.37-2.31a4.85,4.85,0,0,0-1.84.36V80.8H12.4V65h2.84V69.6a8.83,8.83,0,0,1,2.54-.36c4.11,0,4.52,1.95,4.52,4.34V80.8Z"/><path class="cls-2" d="M24.64,75.09c0-4.14,1.3-5.86,5.12-5.86,4.17,0,5,2.19,5,5.64,0,.3,0,.61,0,.92a54,54,0,0,1-5.4.57l-1.88.1c.1,1.78,1,2.22,2.7,2.22a32.45,32.45,0,0,0,4.11-.3l.24,2.15a28.83,28.83,0,0,1-5,.43C25.65,81,24.64,78.48,24.64,75.09Zm4.7-.68c.74,0,1.9-.14,2.56-.23a3.61,3.61,0,0,0,0-.45c0-1.5-.56-2.32-2.17-2.32-2.1,0-2.38,1.31-2.38,3.09Z"/><path class="cls-2" d="M45.29,69.73c0,1.5,1,1.7,2.74,2.17,2.86.78,4.09,1.88,4.09,4.58,0,3.29-2,4.48-5.54,4.48a20.16,20.16,0,0,1-4.31-.46l.29-2.39a31.41,31.41,0,0,0,3.91.33c1.57,0,2.53-.35,2.53-1.85s-1.09-1.7-2.48-2.13c-2.68-.82-4.25-1.65-4.25-4.47,0-3.24,1.91-4.27,5.34-4.27a21.45,21.45,0,0,1,4.27.47l-.28,2.33a21.83,21.83,0,0,0-3.29-.33C47.12,68.19,45.29,68.24,45.29,69.73Z"/><path class="cls-2" d="M54.22,75.09c0-4.14,1.3-5.86,5.12-5.86,4.17,0,5,2.19,5,5.64,0,.3,0,.61,0,.92a54,54,0,0,1-5.4.57l-1.88.1c.1,1.78,1,2.22,2.7,2.22a32.45,32.45,0,0,0,4.11-.3l.24,2.15a28.83,28.83,0,0,1-5,.43C55.24,81,54.22,78.48,54.22,75.09Zm4.7-.68c.74,0,1.9-.14,2.56-.23a3.61,3.61,0,0,0,0-.45c0-1.5-.56-2.32-2.17-2.32-2.1,0-2.38,1.31-2.38,3.09Z"/><path class="cls-2" d="M74.63,80.52a15.16,15.16,0,0,1-3.74.43c-3.83,0-4.42-2.91-4.42-6,0-3.73.88-5.75,5.08-5.75a10.14,10.14,0,0,1,3.06.44l-.23,2.09a10.88,10.88,0,0,0-2.07-.26c-2.67,0-3,.79-3,3.49s.11,3.65,3,3.65a10.05,10.05,0,0,0,2-.27Z"/><path class="cls-2" d="M76.81,69.39h2.84v7c0,1.61.29,2.28,2.24,2.28a4.6,4.6,0,0,0,1.74-.31,14.37,14.37,0,0,0,.07-1.53V69.39h2.83v8.34c0,.78,0,1.44-.1,2.17A10.91,10.91,0,0,1,81.34,81c-4.09,0-4.53-1.84-4.53-4.3Z"/><path class="cls-2" d="M89.41,80.8V72.46a21.46,21.46,0,0,1,.1-2.17,9.51,9.51,0,0,1,4.59-1.06,11,11,0,0,1,1.16.06L95,71.58a6.63,6.63,0,0,0-.82,0,4.68,4.68,0,0,0-1.9.35,14.84,14.84,0,0,0-.07,1.53V80.8Z"/><path class="cls-2" d="M97,66.44c0-1.19.4-1.61,1.68-1.61s1.68.42,1.68,1.61S99.95,68,98.66,68,97,67.62,97,66.44Zm.25,3h2.86V80.8H97.24Z"/><path class="cls-2" d="M106.81,66.17v3.22h2.29v2.16h-2.29v5.9c0,.95.4,1.32,1.35,1.32.32,0,.63,0,1,0l.22,2a11.86,11.86,0,0,1-2,.2c-2.4,0-3.42-1-3.42-3.22V71.55H102.1V69.39H104V66.63Z"/><path class="cls-2" d="M118.8,69.39h2.9L116.39,85h-2.9l1.79-5-4.59-10.61h3l2.86,7Z"/><path class="cls-2" d="M129.17,65.87h3V80.8h-3Z"/><path class="cls-2" d="M138,80.8h-2.83V72.46c0-.78,0-1.44.1-2.17a11,11,0,0,1,5.11-1.06c4.11,0,4.55,1.84,4.55,4.3V80.8h-2.83v-7c0-1.61-.3-2.27-2.26-2.28a4.67,4.67,0,0,0-1.76.31,14.88,14.88,0,0,0-.07,1.53Z"/><path class="cls-2" d="M151.52,66.17v3.22h2.29v2.16h-2.29v5.9c0,.95.4,1.32,1.35,1.32.32,0,.63,0,1,0l.22,2a11.86,11.86,0,0,1-2,.2c-2.4,0-3.42-1-3.42-3.22V71.55h-1.86V69.39h1.86V66.63Z"/><path class="cls-2" d="M155.54,75.09c0-4.14,1.3-5.86,5.12-5.86,4.17,0,5,2.19,5,5.64,0,.3,0,.61,0,.92a54,54,0,0,1-5.4.57l-1.88.1c.1,1.78,1,2.22,2.7,2.22a32.45,32.45,0,0,0,4.11-.3l.24,2.15a28.83,28.83,0,0,1-5,.43C156.55,81,155.54,78.48,155.54,75.09Zm4.7-.68c.74,0,1.9-.14,2.56-.23a3.61,3.61,0,0,0,0-.45c0-1.5-.56-2.32-2.17-2.32-2.1,0-2.38,1.31-2.38,3.09Z"/><path class="cls-2" d="M168,65h2.85V77.69a3.85,3.85,0,0,0,.8,2.5l-2.51,1.18A4.9,4.9,0,0,1,168,77.9Z"/><path class="cls-2" d="M173.64,65h2.85V77.69a3.85,3.85,0,0,0,.8,2.5l-2.51,1.18a4.9,4.9,0,0,1-1.13-3.46Z"/><path class="cls-2" d="M179.19,66.44c0-1.19.4-1.61,1.68-1.61s1.68.42,1.68,1.61-.4,1.61-1.68,1.61S179.19,67.62,179.19,66.44Zm.25,3h2.86V80.8h-2.86Z"/><path class="cls-2" d="M185.6,82.57a33.06,33.06,0,0,0,4.14.33c1.53,0,2.2-.71,2.2-2.11v-.34a10.9,10.9,0,0,1-2.18.24c-3.47,0-5.08-1.39-5.08-5.73s1.69-5.73,5.41-5.73a9.52,9.52,0,0,1,4.59,1.06c.07.73.1,1.39.1,2.17v9c0,3-2.13,3.7-4.68,3.7a28.58,28.58,0,0,1-4.72-.48Zm1.94-7.6c0,2,.11,3.49,2.79,3.49a5.92,5.92,0,0,0,1.6-.25V73.3a14.84,14.84,0,0,0-.07-1.53,4.74,4.74,0,0,0-1.77-.3C187.73,71.47,187.54,73.19,187.54,75Z"/><path class="cls-2" d="M197.21,75.09c0-4.14,1.3-5.86,5.12-5.86,4.17,0,5,2.19,5,5.64,0,.3,0,.61,0,.92a54,54,0,0,1-5.4.57l-1.88.1c.1,1.78,1,2.22,2.7,2.22a32.45,32.45,0,0,0,4.11-.3l.24,2.15a28.83,28.83,0,0,1-5,.43C198.22,81,197.21,78.48,197.21,75.09Zm4.7-.68c.74,0,1.9-.14,2.56-.23a3.61,3.61,0,0,0,0-.45c0-1.5-.56-2.32-2.17-2.32-2.1,0-2.38,1.31-2.38,3.09Z"/><path class="cls-2" d="M212.66,80.8h-2.83V72.46c0-.78,0-1.44.1-2.17A11,11,0,0,1,215,69.24c4.11,0,4.55,1.84,4.55,4.3V80.8h-2.83v-7c0-1.61-.3-2.27-2.26-2.28a4.67,4.67,0,0,0-1.76.31,14.88,14.88,0,0,0-.07,1.53Z"/><path class="cls-2" d="M230.22,80.52a15.16,15.16,0,0,1-3.74.43c-3.83,0-4.42-2.91-4.42-6,0-3.73.88-5.75,5.08-5.75a10.14,10.14,0,0,1,3.06.44L230,71.76a10.88,10.88,0,0,0-2.07-.26c-2.67,0-3,.79-3,3.49s.11,3.65,3,3.65a10.05,10.05,0,0,0,2-.27Z"/><path class="cls-2" d="M231.93,75.09c0-4.14,1.3-5.86,5.12-5.86,4.17,0,5,2.19,5,5.64,0,.3,0,.61,0,.92a54,54,0,0,1-5.4.57l-1.88.1c.1,1.78,1,2.22,2.7,2.22a32.45,32.45,0,0,0,4.11-.3l.24,2.15a28.83,28.83,0,0,1-5,.43C232.95,81,231.93,78.48,231.93,75.09Zm4.7-.68c.74,0,1.9-.14,2.56-.23a3.61,3.61,0,0,0,0-.45c0-1.5-.56-2.32-2.17-2.32-2.1,0-2.38,1.31-2.38,3.09Z"/><path class="cls-2" d="M259.82,80.51a15.54,15.54,0,0,1-3.9.45c-5,0-6.18-2.32-6.18-7.62s1.23-7.62,6.18-7.62a15.55,15.55,0,0,1,3.9.45l-.27,2.34a19.13,19.13,0,0,0-3.08-.26c-3.59,0-3.65,2.15-3.65,5.08s.05,5.08,3.65,5.08a19,19,0,0,0,3.07-.26Z"/><path class="cls-2" d="M261.54,75.09c0-4.25,1.36-5.86,5.11-5.86s5.12,1.65,5.12,5.86S270.42,81,266.66,81,261.54,79.36,261.54,75.09Zm7.39,0c0-2.76-.47-3.57-2.27-3.57s-2.26.72-2.26,3.57.46,3.57,2.26,3.57S268.93,77.87,268.93,75.09Z"/><path class="cls-2" d="M277.11,80.8h-2.83V72.46c0-.78,0-1.44.1-2.17a10.72,10.72,0,0,1,4.83-1.06,4.9,4.9,0,0,1,2.76.65,10.09,10.09,0,0,1,3.49-.65c3.65,0,4.19,2,4.19,4.3V80.8H286.8v-7c0-1.48-.35-2.27-2-2.27a3.94,3.94,0,0,0-1.63.38,7.44,7.44,0,0,1,.15,1.64V80.8h-2.84v-7c0-1.45-.34-2.27-1.9-2.27a3.79,3.79,0,0,0-1.45.3,14.39,14.39,0,0,0-.07,1.53Z"/><path class="cls-2" d="M295.38,85h-2.84V72.46c0-.78,0-1.44.1-2.17a9.53,9.53,0,0,1,4.59-1.06c3.8,0,5.4,1.38,5.4,5.86S301.07,81,297.56,81a10.87,10.87,0,0,1-2.18-.24Zm1.6-6.29c2.72,0,2.79-1.54,2.79-3.61,0-1.86-.11-3.63-2.54-3.63a4.75,4.75,0,0,0-1.78.3,14.85,14.85,0,0,0-.07,1.53v5.16A5.83,5.83,0,0,0,297,78.72Z"/><path class="cls-2" d="M304.58,77.32c0-2,.88-3.27,3.16-3.63a30.41,30.41,0,0,1,3.65-.29c0-1.31-.61-1.91-2.09-1.91a33.25,33.25,0,0,0-4,.3L305,69.67a26.84,26.84,0,0,1,4.48-.44c2.54,0,4.66.71,4.66,3.67v4.83c0,.78,0,1.44-.1,2.17A10.11,10.11,0,0,1,309,81C305.82,81,304.58,79.73,304.58,77.32Zm6.81-2.06a16,16,0,0,0-2.63.26c-1,.24-1.38.56-1.38,1.76s.69,1.52,1.94,1.52a5.32,5.32,0,0,0,2-.31,14.9,14.9,0,0,0,.07-1.53Z"/><path class="cls-2" d="M319.83,80.8H317V72.46c0-.78,0-1.44.1-2.17a11,11,0,0,1,5.11-1.06c4.11,0,4.55,1.84,4.55,4.3V80.8h-2.83v-7c0-1.61-.3-2.27-2.26-2.28a4.67,4.67,0,0,0-1.76.31,14.88,14.88,0,0,0-.07,1.53Z"/><path class="cls-2" d="M336.32,69.39h2.9L333.9,85H331l1.79-5-4.59-10.61h3l2.86,7Z"/><path class="cls-1" d="M306.71,41.78h-7.48v-22c0-2,.09-3.79.25-5.72a28.26,28.26,0,0,1,12.76-2.79c3.32,0,5.65.64,7.28,1.73a26.66,26.66,0,0,1,9.21-1.73c9.64,0,11.07,5.2,11.07,11.35V41.78h-7.5V23.27c0-3.91-.93-6-5.16-6a10.38,10.38,0,0,0-4.3,1,19.82,19.82,0,0,1,.41,4.33V41.78h-7.5V23.27c0-3.84-.9-6-5-6a10,10,0,0,0-3.84.8,38.79,38.79,0,0,0-.19,4Z"/><path class="cls-1" d="M346.12,11.24a4,4,0,1,1-4,4A4,4,0,0,1,346.12,11.24Zm0,1a3.06,3.06,0,1,0,3,3A3,3,0,0,0,346.12,12.2Zm-.49,5.16h-1V13h1.6c1.25,0,1.74.48,1.74,1.33a1.15,1.15,0,0,1-.8,1.19l.92,1.88h-1.14l-.82-1.71h-.5Zm0-3.55v1h.47c.61,0,.86-.17.86-.51s-.27-.48-.88-.48Z"/></g></g></svg>